<?xml version="1.0" encoding="utf-8"?><!-- Uploaded to: SVG Repo, www.svgrepo.com, Generator: SVG Repo Mixer Tools -->
<svg fill="#000000" width="800px" height="800px" viewBox="0 0 24 24" id="atom" data-name="Line Color" xmlns="http://www.w3.org/2000/svg" class="icon line-color"><line id="secondary-upstroke" x1="11.95" y1="12" x2="12.05" y2="12" style="fill: none; stroke: rgb(44, 169, 188); stroke-linecap: round; stroke-linejoin: round; stroke-width: 2;"></line><path id="primary" d="M16,12c0,5-1.79,9-4,9s-4-4-4-9,1.79-9,4-9S16,7,16,12ZM4.25,16.75c1.1,2,5.46,1.54,9.74-1.09s6.85-6.39,5.76-8.41S14.29,5.71,10,8.34,3.16,14.73,4.25,16.75Zm15.5,0c1.09-2-1.48-5.78-5.76-8.41S5.35,5.22,4.25,7.25,5.73,13,10,15.66,18.65,18.78,19.75,16.75Z" style="fill: none; stroke: rgb(0, 0, 0); stroke-linecap: round; stroke-linejoin: round; stroke-width: 2;"></path></svg>