<?xml version="1.0" encoding="UTF-8"?>
<svg id="_레이어_1" data-name="레이어 1" xmlns="http://www.w3.org/2000/svg" viewBox="0 0 600 600">
  <defs>
    <style>
      .cls-1 {
        fill: #231815;
        font-family: Pretendard-Bold-KSCpc-EUC-H, Pretendard;
        font-size: 26px;
        font-weight: 700;
      }

      .cls-2 {
        letter-spacing: 0em;
      }

      .cls-3 {
        fill: #601986;
      }

      .cls-4 {
        letter-spacing: -.02em;
      }

      .cls-5 {
        letter-spacing: -.02em;
      }

      .cls-6 {
        letter-spacing: 0em;
      }

      .cls-7 {
        letter-spacing: -.01em;
      }

      .cls-8 {
        fill: #cca7ff;
      }
    </style>
  </defs>
  <g>
    <path class="cls-8" d="M492.57,219.43c-2.92-10.62-11.72-16.96-23.54-16.96-1.4,0-2.85.09-4.3.27-2.47.31-5.05,1.54-7.55,2.73-2.2,1.05-4.68,2.24-6.19,2.24-.41,0-1.38,0-1.88-3.57-.7-5.02-.7-12.52-.7-19.14,0-2.61,0-5.08-.04-7.27-.08-4.1-.03-8.3.01-12.36.04-3.97.09-8.07.02-12.11-.01-.83-.37-1.61-.98-2.17-.55-.5-1.27-.78-2.02-.78-.08,0-.16,0-.24,0-.78.06-2.37.09-4.86.09-2.73,0-6.23-.04-10.1-.08-4.75-.05-10.13-.1-15.26-.1-23.12,0-23.88,1.11-25.03,2.79-.36.53-.55,1.17-.52,1.82.12,2.74,1.39,5,2.51,7,.64,1.14,1.24,2.21,1.55,3.21,2.53,8.28,1.64,15.67-2.57,21.35-4.03,5.44-10.97,8.82-18.12,8.82-9.23,0-16.54-5.33-19.56-14.27-2.9-8.57-.28-15.47,4.05-25.02.44-.97.33-2.09-.28-2.96-.83-1.18-1.79-1.42-5.92-2.05-1.75-.27-4.07-.58-4.92-.63-5.88-.38-12.21-.56-19.36-.56-9.42,0-19.11.32-28.48.64-9.31.31-18.95.63-28.26.63-7.56,0-14.21-.21-20.33-.64-5.81-.41-6.58-1.62-6.61-1.67-.4-.7,1.09-3.77,1.89-5.43,1.01-2.09,2.16-4.46,2.78-6.97,2.6-10.48-.54-17.39-3.62-21.34-4.35-5.56-11.52-8.89-19.18-8.89-6.79,0-13.07,2.66-17.24,7.28-3.1,3.45-6.58,9.69-5.51,19.88.33,3.11,1.8,6.21,3.1,8.94,1.1,2.31,2.6,5.48,2.05,6.48-.07.12-.75,1.16-4.83,1.66h-49.05c-1.66,0-3,1.34-3,3,0,9.3,0,18.62.03,27.93,0,2.27-.07,4.61-.16,7.1-.17,4.81-.34,9.79.15,14.51l.02.18c.19,1.81.68,6.61,4.96,6.61.47,0,.95-.07,1.43-.22,1.52-.45,2.91-1.28,4.25-2.08,1.13-.68,2.2-1.31,3.2-1.64,2.67-.88,5.45-1.33,8.26-1.33,8.83,0,18.97,4.87,21.68,15.74,1.72,6.9.5,13.49-3.46,18.55-4.16,5.32-10.75,8.37-18.08,8.37-2.36,0-4.75-.32-7.11-.96-.54-.15-2.31-.96-3.59-1.55-4.08-1.88-6.03-2.7-7.55-2.7-1.08,0-1.82.42-2.25.78-.58.48-.96,1.17-1.05,1.92-.07.52-.18,1.07-.3,1.66-.18.88.57,2.79.49,3.87-1.06,15.28-.7,31.21-.15,46.98.66,18.94.6,37.98-1.53,55.87-.43,3.64-1.41,3.64-1.72,3.64-1.47,0-3.93-1.21-6.1-2.27-2.34-1.15-4.76-2.34-7.07-2.7-1.82-.28-3.6-.43-5.32-.43-9.04,0-16.59,4.1-20.72,11.25-4.22,7.31-4.25,16.7-.07,23.93,4.15,7.19,11.6,11.16,20.97,11.16,1.44,0,2.93-.09,4.45-.28,2.44-.3,5.03-1.53,7.53-2.72,2.23-1.06,4.76-2.26,6.28-2.26.4,0,1.35,0,1.78,3.55.67,5.57.7,11.47.72,17.18,0,1.96.02,3.9.05,5.82.08,4.69.03,9.48-.01,14.12-.05,4.52-.09,9.19-.02,13.79.01.83.37,1.61.98,2.17.55.5,1.27.78,2.02.78.08,0,.16,0,.24,0,.78-.06,2.37-.09,4.85-.09,2.73,0,6.22.04,10.08.08,4.74.05,10.12.1,15.25.1,23.17,0,23.92-1.11,25.07-2.8.52-.77.66-1.74.37-2.62-.66-2-1.43-3.85-2.18-5.64-1.52-3.62-2.95-7.05-3.15-11.11-.39-7.81,2.91-13,5.74-15.98,4.2-4.42,10.11-6.95,16.22-6.95,6.78,0,12.75,3.14,16.81,8.83,6.77,9.52,4.46,19.08-1.1,30.49-.48.98-.38,2.15.24,3.04.85,1.2,1.87,1.45,6.27,2.06,2.08.29,4.44.57,5.27.62,5.5.33,11.4.49,18.03.49,9.44,0,19.15-.33,28.54-.65,9.34-.32,19-.64,28.32-.64,8.05,0,15.08.24,21.5.74,5.23.41,5.95,1.55,5.95,1.56.39.68-1.08,3.67-1.87,5.28-.9,1.83-1.91,3.9-2.51,6.03-3.06,10.94.04,18.18,3.18,22.32,4.35,5.73,11.58,9.16,19.35,9.16,6.72,0,12.96-2.63,17.12-7.22,3.12-3.45,6.63-9.72,5.61-19.99-.33-3.32-1.96-6.67-3.39-9.62-.82-1.69-2.06-4.24-2-5.08.08-.81,2.42-2.4,3.53-2.4h50.61c.83,0,1.63-.35,2.2-.96.57-.61.85-1.43.79-2.27-.55-7.29-.08-15.07.39-22.58.49-7.92.99-16.1.32-23.94-.31-3.61-.82-9.66-5.58-9.66-1.67,0-3.12.89-4.67,1.84-1.04.63-2.21,1.36-3.48,1.83-3,1.12-6.09,1.68-9.18,1.68-7.09,0-13.8-3.08-17.94-8.25-3.94-4.91-5.29-11.3-3.81-17.99,2.22-10.02,10.63-16.5,21.43-16.5,1.76,0,3.54.18,5.3.54,2.09.42,3.94,1.26,5.9,2.15,2.18.99,4.44,2.01,7.08,2.47.17.03.34.04.52.04.64,0,1.26-.2,1.78-.58.66-.49,1.09-1.22,1.2-2.03.07-.52.18-1.07.3-1.66.18-.88.39-1.87.46-2.95,1.12-16.16.61-33.21.13-49.69-.43-14.62-.88-29.73-.18-44.06.19-3.91.73-8.59,1.45-12.63.73-1.12,1.24-1.12,1.47-1.12,1.13,0,2.95,1.03,4.56,1.93,1.44.81,2.93,1.65,4.48,2.15,2.9.94,5.88,1.42,8.85,1.42,8,0,15.45-3.51,19.94-9.4,4.24-5.56,5.47-12.65,3.46-19.96Z"/>
    <path class="cls-3" d="M450.5,298.51c.01-.11.02-.22.02-.33l.14-21.28h0s.2-30.82.2-30.82l.15-.24c.2-.32.69-.87,1.71-.87,1.45,0,3.51,1.12,5.33,2.11.78.42,1.51.82,1.89.96,3.19,1.12,6.47,1.69,9.76,1.69,8.17,0,15.87-3.59,20.59-9.61,4.43-5.65,5.87-12.89,4.03-20.4-2.68-10.97-12.21-18.05-24.27-18.05-3.43,0-6.83.59-10.11,1.74-.39.14-1.12.54-1.89.96-1.82.99-3.88,2.11-5.33,2.11-1.02,0-1.51-.55-1.71-.87l-.14-.23-1.06-53.21c-.03-1.35-1.07-2.45-2.41-2.57-.12-.01-.25-.02-.38-.03-6.13-.45-14.3-.69-23.01-.69s-17.25.25-23.72.69c-4.59.32-8.83.8-10.38,3.13-.9,1.36-.88,3.36.07,6.1.7,2.03,1.45,3.73,2.17,5.38,2.45,5.59,4.21,9.64.55,18.33-3.16,7.5-9.88,11.97-17.99,11.97-6.8,0-13.23-3.13-17.2-8.36-2.85-3.76-5.68-10.27-2.98-19.89.39-1.4,1.18-2.94,2.01-4.57,1.48-2.9,3.16-6.19,2.25-8.36-.46-1.11-1.59-1.94-3.44-2.54-.9-.29-5.43-1.16-6.05-1.17h-101.21c-.18,0-2.59-.44-3.25-1.65-.27-.5-.25-1.06.08-1.58,7.23-10.3,7.47-27.66-3.75-36.1-4.81-3.62-10.17-5.53-15.5-5.53-7.49,0-14.64,3.79-19.14,10.15-4.99,7.06-6.05,16.2-2.91,25.08.49,1.39,1.35,2.71,2.11,3.87.64.98,1.25,1.91,1.57,2.78.21.58.13,1.18-.24,1.7-.6.85-1.83,1.28-2.35,1.28h-54.07c-.25.22-.29.5-.36,1.16l-.04.33c-1.12,9.58-.71,25.67-.42,37.41.06,2.35.12,4.56.16,6.55.01.52.01,1.09.02,1.71.03,7.19.5,14.22,5.73,14.22.2,0,.41-.01.63-.03,1.3-.12,3.13-1.05,5.08-2.03,2.83-1.43,6.05-3.05,9.53-3.39.99-.1,1.98-.15,2.93-.15,14.18,0,20.63,10.53,20.63,20.31,0,10.3-7.01,20.73-20.42,20.74h0c-1.89,0-3.88-.21-5.92-.62-2.19-.44-4.46-1.54-6.67-2.6-2.54-1.22-4.94-2.38-6.83-2.38-.81,0-2.68,0-3.77,3.98-.06.22-.09.46-.09.69v67.77c.1,3.67.08,7.68,0,11.64h0s0,0,0,0c-.11,5.57-.33,11.02-.5,15.24v.26c-.09,1.88-.3,3.89-.51,5.83-.27,2.51-.54,5.11-.54,7.55v.28l-.15.24c-.2.33-.69.87-1.71.87-1.45,0-3.51-1.12-5.33-2.12-.77-.42-1.5-.82-1.89-.96-3.42-1.2-6.82-1.82-10.13-1.82-10.8,0-20.11,6.56-23.72,16.71-3.45,9.7-.54,19.52,7.76,26.27,4.17,3.39,9.58,5.18,15.67,5.18,3.95,0,8.08-.77,11.95-2.23.31-.12.9-.49,1.47-.85,1.34-.85,2.86-1.81,4.14-1.81.77,0,1.4.34,1.79.97l.14.23,1.56,52.9c.04,1.42,1.21,2.55,2.64,2.55,0,0,.02,0,.03,0,5.51,0,11.23.18,16.77.35,5.58.17,11.35.35,16.94.35,4.45,0,8.37-.11,11.97-.35,3.96-.25,9.39-.61,11.2-3.29.88-1.31.92-3.13.1-5.58-.68-2.05-1.51-3.64-2.31-5.17-1.73-3.32-3.36-6.45-2.53-12.83,1.72-13.19,11.86-17.87,20.03-17.87,6.75,0,13.08,2.97,16.95,7.94,2.8,3.6,5.62,9.92,3.17,19.59-.4,1.56-1.25,3.24-2.16,5.02-1.58,3.11-3.22,6.33-2.18,8.61.77,1.69,3.95,2.82,9.48,3.37.09,0,.19.01.29.01h37.69c.1,0,.2,0,.31,0,.24,0,.47,0,.71,0h39.76v.17h22.38c.18,0,2.59.44,3.25,1.65.27.5.25,1.06-.05,1.53-3.52,5.72-7.09,14.57-4.17,24.25,3.11,10.31,12.5,17.24,23.35,17.24,7.07,0,13.53-3.02,18.17-8.5,7.57-8.94,7.66-21.63.24-33.95l-.89-1.47,55.33-1.44c1.4-.04,2.53-1.16,2.56-2.56.06-3.58.02-7.18-.02-10.68-.04-3.58-.08-7.28-.01-10.92.05-2.53.2-5.27.36-8.18.43-7.71.92-16.44-.61-22.91-1.09-4.58-3-5.17-4.54-5.17-2.07,0-4.63,1.19-7.35,2.46-2.59,1.21-5.27,2.46-7.79,2.75-1.22.14-2.43.21-3.58.21-7.94,0-14.26-3.37-17.8-9.5-3.78-6.54-3.71-15.44.16-22.15,3.57-6.18,9.63-9.58,17.06-9.58,1.99,0,4.09.25,6.24.74,1.72.39,3.57,1.31,5.52,2.28,2.54,1.26,5.17,2.57,7.34,2.57,1.33,0,2.35-.5,3.2-1.56.4-.5,1.35-2.7,1.7-3.75.09-.26.13-.53.13-.81v-49.47c0-.12,0-.23.02-.35l.64-4.79ZM447.4,423.82c-.47,7.58-.95,15.42-.38,22.85l.08,1.08h-51.68c-1.88,0-5.39,2.15-5.52,4.27-.09,1.37,1.02,3.66,2.2,6.08,1.36,2.8,2.91,5.98,3.2,8.95.75,7.55-1.01,13.93-5.1,18.45-3.78,4.17-9.47,6.57-15.63,6.57-7.15,0-13.79-3.13-17.76-8.37-2.87-3.78-5.69-10.42-2.84-20.57.55-1.96,1.48-3.86,2.38-5.69,1.4-2.86,2.72-5.55,1.81-7.15-.78-1.37-3.32-2.24-7.53-2.57-6.47-.5-13.55-.75-21.65-.75-9.36,0-19.03.33-28.39.64-9.38.32-19.07.65-28.48.65-6.59,0-12.45-.16-17.91-.49-.09,0-9.24-.73-10.02-1.84l-.34-.48.26-.53c5.08-10.43,8.71-21.59.93-32.53-4.44-6.24-10.99-9.67-18.44-9.67-6.66,0-13.1,2.76-17.67,7.57-3.11,3.27-6.72,8.95-6.29,17.46.22,4.42,1.72,7.99,3.3,11.78.74,1.76,1.5,3.57,2.13,5.5l.15.47-.28.41c-.69,1.01-2.99,1.92-23.41,1.92-5.12,0-10.49-.05-15.23-.1-3.87-.04-7.37-.08-10.1-.08-2.54,0-4.18.03-5.01.1l-1.06.08-.02-1.07c-.07-4.58-.03-9.23.02-13.74.05-4.65.1-9.46.01-14.18-.03-1.91-.04-3.84-.05-5.79-.03-5.76-.05-11.73-.74-17.41-.57-4.7-2.31-5.31-3.76-5.31-1.97,0-4.6,1.25-7.14,2.45-2.36,1.12-4.79,2.28-6.91,2.54-1.43.18-2.85.27-4.2.27-8.62,0-15.45-3.61-19.23-10.16-3.82-6.62-3.79-15.23.07-21.93,3.82-6.61,10.56-10.25,18.99-10.25,1.61,0,3.29.14,5.01.4,2,.31,4.29,1.43,6.49,2.52,2.48,1.22,5.05,2.48,6.98,2.48,1.43,0,3.14-.61,3.71-5.4,2.15-18.04,1.46-37.71.8-56.72-.55-15.71-1.12-31.96-.07-47.14.06-.94.25-1.82.42-2.68.13-.62.25-1.21.33-1.81l.05-.39.3-.25c.25-.21.58-.32.97-.32,1.16,0,3.41,1,6.71,2.52,1.58.73,3.2,1.48,3.91,1.67,2.53.68,5.1,1.03,7.64,1.03,7.96,0,15.12-3.33,19.66-9.14,4.34-5.56,5.7-12.75,3.82-20.26-2.58-10.32-12.07-17.26-23.62-17.26-3.02,0-6.01.48-8.89,1.43-1.21.4-2.43,1.12-3.6,1.83-1.29.77-2.51,1.5-3.79,1.88-.3.09-.59.13-.87.13-2.48,0-2.79-3.01-2.97-4.81l-.02-.18c-.48-4.59-.31-9.49-.14-14.23.09-2.51.17-4.88.16-7.19-.03-9.31-.03-18.62-.03-27.92v-1h49.99c.12,0,.24,0,.36-.02,3.43-.43,5.54-1.33,6.28-2.67,1.05-1.9-.43-5.01-1.99-8.31-1.29-2.71-2.62-5.52-2.91-8.29-.78-7.48.95-13.82,5.01-18.33,3.79-4.21,9.53-6.62,15.75-6.62,7.04,0,13.62,3.03,17.6,8.12,2.82,3.6,5.67,9.92,3.26,19.62-.57,2.3-1.67,4.57-2.64,6.58-1.42,2.92-2.75,5.69-1.82,7.3.83,1.44,3.59,2.34,8.2,2.66,6.17.44,12.86.65,20.47.65h0c9.35,0,19-.32,28.33-.63,9.35-.31,19.02-.63,28.41-.63,7.11,0,13.4.18,19.24.56.08,0,8.58.76,9.33,1.84l.33.47-.24.52c-3.68,8.12-7.49,16.52-4.12,26.48,3.31,9.79,11.33,15.63,21.46,15.63,7.77,0,15.33-3.69,19.73-9.63,3.21-4.33,6.31-11.87,2.87-23.13-.37-1.21-1.02-2.38-1.71-3.61-1.06-1.89-2.16-3.84-2.25-6.1v-.33s.17-.27.17-.27c.69-1.01,2.99-1.92,23.37-1.92,5.13,0,10.5.06,15.25.1,3.88.04,7.38.08,10.12.08,2.54,0,4.18-.03,5.01-.1l1.06-.08.02,1.06c.07,4.01.02,8.09-.02,12.04-.05,4.08-.09,8.3-.01,12.43.04,2.17.04,4.63.04,7.24,0,6.68,0,14.25.72,19.41.65,4.7,2.4,5.3,3.86,5.3,1.96,0,4.55-1.24,7.05-2.43,2.35-1.12,4.78-2.29,6.93-2.55,1.37-.17,2.73-.25,4.06-.25,11.03,0,18.91,5.65,21.61,15.49,1.84,6.7.73,13.17-3.12,18.22-4.11,5.39-10.97,8.61-18.34,8.61-2.76,0-5.53-.44-8.23-1.32-1.36-.44-2.76-1.23-4.12-1.99-1.91-1.08-3.89-2.19-5.54-2.19-.79,0-1.94.22-3.1,1.96-.19.28-.3.61-.36.94-.72,4.09-1.26,8.8-1.45,12.76-.7,14.41-.25,29.56.18,44.21.48,16.44.99,33.44-.12,49.5-.07.94-.25,1.82-.43,2.68-.13.62-.25,1.21-.33,1.8l-.13,1.04-1.03-.18c-2.39-.42-4.53-1.38-6.59-2.32-1.98-.9-4.02-1.82-6.33-2.29-1.89-.38-3.81-.58-5.7-.58-11.77,0-20.95,7.09-23.38,18.06-1.62,7.29-.12,14.28,4.2,19.68,4.52,5.64,11.81,9,19.5,9,3.33,0,6.65-.61,9.88-1.81,1.45-.54,2.71-1.31,3.82-2,1.41-.86,2.52-1.54,3.62-1.54,2.43,0,3.17,3,3.58,7.83.65,7.7.16,15.81-.33,23.65Z"/>
  </g>
  <text class="cls-1" transform="translate(246.28 298.01)"><tspan class="cls-2" x="0" y="0">F</tspan><tspan class="cls-4" x="14.4" y="0">r</tspan><tspan x="24.1" y="0">on</tspan><tspan class="cls-6" x="54.97" y="0">t</tspan><tspan x="64.45" y="0">end</tspan><tspan x="-6.98" y="29">D</tspan><tspan class="cls-7" x="11.25" y="29">e</tspan><tspan class="cls-5" x="25.8" y="29">v</tspan><tspan x="39.97" y="29">eloper</tspan></text>
</svg>