<svg id="_레이어_1" data-name="레이어 1" xmlns="http://www.w3.org/2000/svg" viewBox="0 0 600 600">
  <defs>
    <style>
      .cls-1 {
        fill: #231815;
      }

      .cls-2 {
        fill: #1d2088;
      }

      .cls-3 {
        fill: #86ddff;
      }
    </style>
  </defs>
  <g>
    <path class="cls-3" d="M297.97,542.86c-.01-1.02-.54-1.96-1.4-2.5-.49-.31-1.04-.46-1.6-.46-.43,0-.85.09-1.25.27-5.92,2.72-11.03,5.07-16.79,5.07-1.79,0-3.6-.21-5.51-.66-10.75-2.48-15.7-11.14-16.75-18.41-1.05-7.27,1.24-16.95,10.79-22.33,3.72-2.1,7.43-3.12,11.33-3.12,4.83,0,10.04,1.56,16.39,4.91.43.23.91.35,1.4.35,3.08,0,4.05-4.24,4.06-4.28.02-.15.04-.31.04-.46v-49.92c0-1.6-1.26-2.92-2.86-3-2.54-.12-5.24-.18-8.26-.18-4.31,0-8.72.12-12.98.23-4.22.11-8.58.23-12.81.23-3.6,0-6.76-.08-9.66-.26-9.42-.56-10.45-2.34-10.49-2.42-.64-1.4.9-4.44,2.14-6.88.91-1.8,1.86-3.66,2.31-5.44,2.65-10.45-.46-17.35-3.53-21.31-4.24-5.46-11.17-8.71-18.53-8.71-9.69,0-20.25,6.07-22.01,19.62-.91,7,.95,10.57,2.74,14.02.76,1.47,1.56,2.98,2.19,4.88.41,1.23.77,2.89.14,3.83-1.26,1.86-6.52,2.2-9.67,2.41-3.56.23-7.43.34-11.84.34-5.56,0-11.31-.18-16.88-.35-5.55-.17-11.29-.35-16.83-.35-.22,0-.43,0-.65,0l-1.57-53.24c-.02-.53-.17-1.04-.45-1.49-.75-1.22-2.03-1.92-3.49-1.92-1.86,0-3.64,1.13-5.21,2.12-.38.24-.94.6-1.11.67-3.65,1.38-7.53,2.1-11.24,2.1-5.61,0-10.6-1.64-14.4-4.73-7.62-6.2-10.29-15.19-7.14-24.05,3.32-9.34,11.89-15.38,21.83-15.38,3.08,0,6.26.57,9.46,1.7.25.09,1.03.52,1.6.83,2.53,1.38,4.47,2.36,6.29,2.36,1.46,0,2.7-.66,3.42-1.82.29-.47.45-1.02.44-1.58,0-2.33.27-4.87.53-7.33.21-1.97.43-4.01.51-5.96v-.3c.41-9.76,1.07-26.1-.01-35.35l-.03-.28c-.11-1.04-.31-2.99-2.45-4.3-.47-.29-1.02-.44-1.57-.44h-47.42c-1-.08-5.23-1.3-6.23-1.84-1.1-.91-1.04-1.86,1.29-5.94.69-1.2,1.39-2.44,1.84-3.67,4.16-11.48,1.37-19.12-1.71-23.5-4.15-5.92-11.34-9.46-19.22-9.46-6.64,0-12.76,2.61-16.81,7.15-3.02,3.39-6.37,9.53-5.2,19.52.39,3.34,1.99,6.46,3.4,9.21,1,1.95,2.03,3.96,2.08,5.12.12,2.84-7.8,3.26-10.41,3.4h-.18c-3.06.17-6.39.25-10.17.25-4.28,0-8.67-.1-12.92-.2-4.29-.1-8.72-.2-13.06-.2-3.02,0-5.73.05-8.27.15-1.61.06-2.88,1.39-2.88,3v292.63c0,1.66,1.34,3,3,3h291.94c.8,0,1.57-.32,2.14-.89.56-.57.88-1.34.86-2.15l-.7-52.33Z"/>
    <path class="cls-2" d="M300.11,570.18c-.06-2.81,0-5.77.05-8.9.1-5.67.2-11.54-.38-16.52-.71-6.16-2.67-6.16-3.4-6.16-1.48,0-3.46,1.08-5.38,2.12-1.24.67-2.52,1.37-3.76,1.84-3.06,1.15-6.2,1.73-9.33,1.73-7.42,0-14.27-3.34-18.33-8.93-3.97-5.47-4.88-12.4-2.56-19.52,2.86-8.8,10.39-14.05,20.14-14.05,3.24,0,6.52.58,9.75,1.71,1.19.42,2.41,1.11,3.59,1.77,1.76.99,3.58,2.01,5.09,2.01.73,0,1.82-.2,2.94-1.92.89-1.36,1.62-5.51,1.99-11.14v-25.31c-.14-5.75-.24-11.6,0-17.29v-4.34c-.41.01-.82.03-1.23.04-9.38.32-19.07.65-28.48.65-6.59,0-12.45-.16-17.91-.49-.09,0-9.24-.73-10.02-1.84l-.34-.48.26-.53c5.08-10.43,8.71-21.59.93-32.53-4.44-6.24-10.99-9.67-18.44-9.67-6.66,0-13.1,2.76-17.67,7.57-3.11,3.27-6.72,8.95-6.29,17.46.22,4.42,1.72,7.99,3.3,11.78.74,1.76,1.5,3.57,2.13,5.5l.15.47-.28.41c-.69,1.01-2.99,1.92-23.41,1.92-5.12,0-10.49-.05-15.23-.1-3.87-.04-7.37-.08-10.1-.08-2.54,0-4.18.03-5.01.1l-1.06.08-.02-1.07c-.07-4.58-.03-9.23.02-13.74.05-4.65.1-9.46.01-14.18-.03-1.91-.04-3.84-.05-5.79-.03-5.76-.05-11.73-.74-17.41-.57-4.7-2.31-5.31-3.76-5.31-1.97,0-4.6,1.25-7.14,2.45-2.36,1.12-4.79,2.28-6.91,2.54-1.43.18-2.85.27-4.2.27-8.62,0-15.45-3.61-19.23-10.16-3.82-6.62-3.79-15.23.07-21.93,3.82-6.61,10.56-10.25,18.99-10.25,1.61,0,3.29.14,5.01.4,2,.31,4.29,1.43,6.49,2.52,2.48,1.22,5.05,2.48,6.98,2.48,1.43,0,3.14-.61,3.71-5.4,2.08-17.47,1.51-36.47.86-54.92h-52.46s-5.11-.87-5.46-2.53l-.08-.36.18-.32c3.72-6.68,6.84-14.2,4.52-23.85-3.08-12.86-14.09-17.42-22.57-17.42-6.91,0-13.37,2.75-17.7,7.55-4.59,5.08-6.58,12.11-5.74,20.34.34,3.35,1.6,6.17,2.93,9.16.62,1.38,1.25,2.81,1.8,4.31l.12.32-.1.33c-.52,1.62-5.17,2.48-5.4,2.48H3.13v3.4c2,.03,6.33.06,8.88.1,6.95.11,15.6.25,23.2.25,5.83,0,10.18-.08,13.29-.25h.18c4.06-.22,12.5-.67,12.3-5.49-.07-1.59-1.15-3.71-2.3-5.95-1.33-2.6-2.84-5.55-3.19-8.53-.86-7.33.77-13.54,4.7-17.96,3.67-4.12,9.25-6.48,15.31-6.48,7.23,0,13.8,3.22,17.58,8.61,2.8,3.99,5.33,10.99,1.46,21.67-.38,1.06-1.02,2.18-1.69,3.36-2.17,3.81-3.39,6.46-.71,8.57.78.61,6.28,2.2,7.29,2.2h47.79l.24.15c1.3.8,1.41,1.91,1.5,2.81l.03.3c1.07,9.11.41,25.36,0,35.07v.26c-.09,1.88-.3,3.89-.51,5.83-.27,2.51-.54,5.11-.54,7.55v.28l-.15.24c-.2.33-.69.87-1.71.87-1.45,0-3.51-1.12-5.33-2.12-.77-.42-1.5-.82-1.89-.96-3.42-1.2-6.82-1.82-10.13-1.82-10.8,0-20.11,6.56-23.72,16.71-3.45,9.7-.54,19.52,7.76,26.27,4.17,3.39,9.58,5.18,15.67,5.18,3.95,0,8.08-.77,11.95-2.23.31-.12.9-.49,1.47-.85,1.34-.85,2.86-1.81,4.14-1.81.77,0,1.4.34,1.79.97l.14.23,1.64,55.46c.86,0,1.72-.01,2.59-.01,5.51,0,11.23.18,16.77.35,5.58.17,11.35.35,16.94.35,4.45,0,8.37-.11,11.97-.35,3.96-.25,9.39-.61,11.2-3.29.88-1.31.92-3.13.1-5.58-.68-2.05-1.51-3.64-2.31-5.17-1.73-3.32-3.36-6.45-2.53-12.83,1.72-13.19,11.86-17.87,20.03-17.87,6.75,0,13.08,2.97,16.95,7.94,2.8,3.6,5.62,9.92,3.17,19.59-.4,1.56-1.25,3.24-2.16,5.02-1.58,3.11-3.22,6.33-2.18,8.61.89,1.94,4.99,3.15,12.19,3.58,2.95.18,6.15.26,9.78.26,4.25,0,8.63-.12,12.86-.23,4.25-.11,8.64-.23,12.93-.23,2.99,0,5.66.06,8.17.17l.95.04v51.03s-.78,2.59-2.12,2.59h-.23s-.21-.12-.21-.12c-6.65-3.51-12.15-5.14-17.32-5.14-4.25,0-8.28,1.1-12.31,3.37-8.73,4.92-13.25,14.25-11.79,24.36,1.46,10.12,8.46,17.81,18.28,20.08,2.07.48,4.02.71,5.96.71,6.2,0,11.5-2.44,17.63-5.26l1.4-.65.57,55.52h3.67c-.08-3.51-.19-12.5-.29-18-.07-3.57-.12-6.78-.16-8.62Z"/>
    <polygon points="296.8 595.15 296.8 595.15 4.86 595.15 4.86 302.52 4.86 302.52 4.86 298.04 0 298.04 0 600 300.54 600 300.54 595.15 296.8 595.15"/>
  </g>
  <g>
    <path class="cls-1" d="M73.26,482.49c4.86,0,8.58,3.44,8.58,9.45,0,3.29-1.12,5.8-2.92,7.41l2.62,3.3h-3.58l-1.47-1.83c-.99.37-2.08.56-3.22.56-4.9,0-8.61-3.47-8.61-9.45s3.71-9.45,8.61-9.45ZM75.19,494.75l1.4,1.79c.88-1.02,1.38-2.58,1.37-4.61.01-3.94-1.87-6.06-4.7-6.07-2.86.01-4.72,2.13-4.72,6.07s1.87,6.06,4.72,6.07c.37,0,.72-.04,1.05-.11l-2.4-3.14h3.28Z"/>
    <path class="cls-1" d="M93.37,487.34h3.76v13.79h-3.61v-2.49h-.15c-.62,1.6-2.11,2.67-4.19,2.67-2.75,0-4.65-1.96-4.65-5.18v-8.79h3.76v8.12c0,1.64.94,2.65,2.41,2.67,1.37-.01,2.67-.99,2.67-2.87v-7.92Z"/>
    <path class="cls-1" d="M104.51,493.02c.99-.06,2.84-.15,3.43-.18v-1.12c-.01-1.16-.8-1.82-2.21-1.83-1.28.01-2.08.58-2.29,1.52h-3.58c.23-2.39,2.31-4.27,5.97-4.27,3.01,0,5.85,1.35,5.84,4.67v9.29h-3.55v-1.9h-.1c-.67,1.27-1.99,2.17-4.04,2.16-2.64.01-4.58-1.38-4.6-4.11.01-3.07,2.48-4.08,5.13-4.24ZM105.05,498.79c1.71-.01,2.91-1.13,2.89-2.59v-1c-.57.03-2.18.11-2.82.17-1.31.11-2.13.74-2.13,1.8s.85,1.61,2.06,1.62Z"/>
    <path class="cls-1" d="M118.3,501.12h-3.76v-18.38h3.76v18.38Z"/>
    <path class="cls-1" d="M123.1,481.7c1.12.01,2.04.86,2.03,1.93.01,1.04-.91,1.9-2.03,1.9s-2.06-.86-2.06-1.9.93-1.92,2.06-1.93ZM121.22,487.34h3.76v13.79h-3.76v-13.79Z"/>
    <path class="cls-1" d="M135.16,490.15h-2.59v6.73c-.01,1.1.53,1.37,1.29,1.4.38,0,1.04-.04,1.5-.08v2.97c-.41.06-1.08.14-2.01.13-2.72.01-4.57-1.21-4.54-3.88v-7.26h-1.9v-2.82h1.9v-3.3h3.76v3.3h2.59v2.82Z"/>
    <path class="cls-1" d="M137.83,506.23v-2.92c.48.04,1.05.05,1.52.05.75,0,1.35-.08,1.8-1.27l.23-.58-4.95-14.17h3.94l2.89,10.16h.15l2.92-10.16h3.99l-5.38,15.31c-.79,2.22-2.3,3.64-5.21,3.66-.74-.01-1.42-.03-1.9-.08Z"/>
    <path class="cls-1" d="M41.94,530.12l6.37-18.38h4.9l6.35,18.38h-4.09l-1.38-4.24h-6.65l-1.38,4.24h-4.11ZM53.12,522.91l-2.3-7.03h-.13l-2.3,7.03h4.72Z"/>
    <path class="cls-1" d="M66.87,518.82c-1.22.01-2.15.58-2.13,1.42-.01.62.47,1.1,1.78,1.37l2.46.51c2.68.56,3.97,1.75,3.99,3.73-.01,2.72-2.45,4.53-6.12,4.54-3.72-.01-5.9-1.68-6.22-4.37h3.78c.18,1.08,1.05,1.64,2.44,1.65,1.37-.01,2.29-.56,2.29-1.45,0-.71-.58-1.16-1.88-1.42l-2.29-.46c-2.63-.52-3.97-1.87-3.96-3.91-.01-2.64,2.26-4.29,5.81-4.29s5.64,1.65,5.84,4.27h-3.53c-.17-.96-1-1.59-2.26-1.6Z"/>
    <path class="cls-1" d="M80.89,518.82c-1.22.01-2.15.58-2.13,1.42-.01.62.47,1.1,1.78,1.37l2.46.51c2.68.56,3.97,1.75,3.99,3.73-.01,2.72-2.45,4.53-6.12,4.54-3.72-.01-5.9-1.68-6.22-4.37h3.78c.18,1.08,1.05,1.64,2.44,1.65,1.37-.01,2.29-.56,2.29-1.45,0-.71-.58-1.16-1.88-1.42l-2.29-.46c-2.63-.52-3.97-1.87-3.96-3.91-.01-2.64,2.26-4.29,5.81-4.29s5.64,1.65,5.84,4.27h-3.53c-.17-.96-1-1.59-2.26-1.6Z"/>
    <path class="cls-1" d="M98.13,516.34h3.76v13.79h-3.61v-2.49h-.15c-.62,1.6-2.11,2.67-4.19,2.67-2.75,0-4.65-1.96-4.65-5.18v-8.79h3.76v8.12c0,1.64.94,2.65,2.41,2.67,1.37-.01,2.67-.99,2.67-2.87v-7.92Z"/>
    <path class="cls-1" d="M104.81,516.34h3.63v2.39h.15c.5-1.69,1.78-2.59,3.33-2.59.38,0,.86.05,1.19.13v3.35c-.36-.11-1.08-.2-1.6-.2-1.7,0-2.96,1.18-2.95,2.87v7.85h-3.76v-13.79Z"/>
    <path class="cls-1" d="M119.02,522.02c.99-.06,2.84-.15,3.43-.18v-1.12c-.01-1.16-.8-1.82-2.21-1.83-1.28.01-2.08.58-2.29,1.52h-3.58c.23-2.39,2.31-4.27,5.97-4.27,3.01,0,5.85,1.35,5.84,4.67v9.29h-3.55v-1.9h-.1c-.67,1.27-1.99,2.17-4.04,2.16-2.64.01-4.58-1.38-4.6-4.11.01-3.07,2.48-4.08,5.13-4.24ZM119.56,527.79c1.71-.01,2.91-1.13,2.89-2.59v-1c-.57.03-2.18.11-2.82.17-1.31.11-2.13.74-2.13,1.8s.85,1.61,2.06,1.62Z"/>
    <path class="cls-1" d="M132.81,530.12h-3.76v-13.79h3.58v2.41h.15c.62-1.59,2.09-2.59,4.14-2.59,2.88,0,4.76,1.97,4.75,5.18v8.79h-3.73v-8.12c-.01-1.7-.93-2.72-2.49-2.72s-2.64,1.05-2.64,2.87v7.97Z"/>
    <path class="cls-1" d="M144.03,523.27c-.01-4.21,2.58-7.11,6.75-7.11,3.55,0,5.97,2.07,6.12,5.23h-3.53c-.23-1.36-1.12-2.3-2.54-2.31-1.8.01-3,1.52-3,4.14s1.17,4.19,3,4.19c1.32,0,2.3-.83,2.54-2.29h3.53c-.17,3.12-2.46,5.27-6.12,5.28-4.23-.01-6.77-2.93-6.75-7.13Z"/>
    <path class="cls-1" d="M158.69,523.29c-.01-4.25,2.62-7.13,6.65-7.13,3.62,0,6.47,2.29,6.47,6.98v1.07h-9.42c0,2.08,1.23,3.36,3.17,3.38,1.28-.01,2.2-.57,2.56-1.4h3.58c-.53,2.55-2.82,4.2-6.22,4.21-4.23-.01-6.82-2.74-6.8-7.11ZM168.26,521.85c-.01-1.68-1.17-2.88-2.84-2.87-1.73-.01-2.95,1.28-3.02,2.87h5.87Z"/>
    <path class="cls-1" d="M68.81,540.74h15.06v3.15h-5.64v15.23h-3.78v-15.23h-5.64v-3.15Z"/>
    <path class="cls-1" d="M83.59,552.29c-.01-4.25,2.62-7.13,6.65-7.13,3.62,0,6.47,2.29,6.47,6.98v1.07h-9.42c0,2.08,1.23,3.36,3.17,3.38,1.28-.01,2.2-.57,2.56-1.4h3.58c-.53,2.55-2.82,4.2-6.22,4.21-4.23-.01-6.82-2.74-6.8-7.11ZM93.16,550.85c-.01-1.68-1.17-2.88-2.84-2.87-1.73-.01-2.95,1.28-3.02,2.87h5.87Z"/>
    <path class="cls-1" d="M104.69,547.82c-1.22.01-2.15.58-2.13,1.42-.01.62.47,1.1,1.78,1.37l2.46.51c2.68.56,3.97,1.75,3.99,3.73-.01,2.72-2.45,4.53-6.12,4.54-3.72-.01-5.9-1.68-6.22-4.37h3.78c.18,1.08,1.05,1.64,2.44,1.65,1.37-.01,2.29-.56,2.29-1.45,0-.71-.58-1.16-1.88-1.42l-2.29-.46c-2.63-.52-3.97-1.87-3.96-3.91-.01-2.64,2.26-4.29,5.81-4.29s5.64,1.65,5.84,4.27h-3.53c-.17-.96-1-1.59-2.26-1.6Z"/>
    <path class="cls-1" d="M120.35,548.15h-2.59v6.73c-.01,1.1.53,1.37,1.29,1.4.38,0,1.04-.04,1.5-.08v2.97c-.41.06-1.08.14-2.01.13-2.72.01-4.57-1.21-4.54-3.88v-7.26h-1.9v-2.82h1.9v-3.3h3.76v3.3h2.59v2.82Z"/>
    <path class="cls-1" d="M122.02,552.29c-.01-4.25,2.62-7.13,6.65-7.13,3.62,0,6.47,2.29,6.47,6.98v1.07h-9.42c0,2.08,1.23,3.36,3.17,3.38,1.28-.01,2.2-.57,2.56-1.4h3.58c-.53,2.55-2.82,4.2-6.22,4.21-4.23-.01-6.82-2.74-6.8-7.11ZM131.59,550.85c-.01-1.68-1.17-2.88-2.84-2.87-1.73-.01-2.95,1.28-3.02,2.87h5.87Z"/>
    <path class="cls-1" d="M137.5,545.34h3.63v2.39h.15c.5-1.69,1.78-2.59,3.33-2.59.38,0,.86.05,1.19.13v3.35c-.36-.11-1.08-.2-1.6-.2-1.7,0-2.96,1.18-2.95,2.87v7.85h-3.76v-13.79Z"/>
  </g>
</svg>