<svg id="_레이어_1" data-name="레이어 1" xmlns="http://www.w3.org/2000/svg" viewBox="0 0 600 600">
  <defs>
    <style>
      .cls-1 {
        fill: #231815;
        font-family: Pretendard-Bold-KSCpc-EUC-H, Pretendard;
        font-size: 26px;
        font-weight: 700;
      }

      .cls-2 {
        letter-spacing: -.02em;
      }

      .cls-3 {
        letter-spacing: -.02em;
      }

      .cls-4 {
        letter-spacing: -.01em;
      }

      .cls-5 {
        fill: #e4007f;
      }

      .cls-6 {
        fill: #ffb5e2;
      }
    </style>
  </defs>
  <g>
    <path class="cls-6" d="M340.04,65.14c-5.14-8.58-15.79-12.45-26.5-9.62-1.79.47-3.68,1.42-5.5,2.34-2.33,1.18-5.53,2.79-6.81,2.2-.6-.28-1.17-1.37-1.57-3-.28-1.16-1.05-6.86-1.07-7.72V4.94c0-.8-.32-1.56-.88-2.12-.56-.56-1.32-.88-2.12-.88h-.01L3.64,2.97c-1.65,0-2.99,1.35-2.99,3v291.59c0,1.66,1.34,3,3,3h47.85c.06,0,6.3-.72,7.31-3.87.2-.63.19-1.32-.04-1.94-.57-1.57-1.22-3.03-1.85-4.44-1.26-2.83-2.46-5.51-2.77-8.54-1.64-16.24,8.41-23.81,17.51-25.36,9.95-1.69,21.59,3.11,24.57,15.55,2.04,8.49-.26,15.1-4.32,22.41-.35.63-.46,1.36-.32,2.06.71,3.43,7.35,4.13,7.42,4.13h47.85c1.49,0,2.75-1.09,2.97-2.57,1.29-8.87.95-18.23.62-27.27-.26-7.18-.53-14.6.06-21.47.43-5.01,1.6-5.92,1.83-6.05,1.05-.6,4.24.94,6.57,2.06,2.31,1.11,4.7,2.26,7.14,2.75,10.25,2.08,19.13-.88,24.36-8.13,5.27-7.3,5.82-17.85,1.34-25.65-4.37-7.62-12.66-11.42-22.71-10.45-3.86.37-7.4,2.16-10.24,3.6-1.69.85-3.44,1.74-4.36,1.83-1.16.11-1.68-.21-2.01-.51-2.11-1.91-2.14-8.27-2.15-11.69,0-.63,0-1.21-.02-1.74-.04-2-.1-4.22-.16-6.58-.29-11.57-.7-27.36.37-36.83h52.51c1.23,0,3.06-.8,3.99-2.14.74-1.05.91-2.34.47-3.53-.4-1.08-1.06-2.1-1.77-3.19-.73-1.12-1.49-2.28-1.9-3.44-3.88-10.99-.84-22.15,7.75-28.45,6.21-4.56,16.5-6.68,26.72,1.01,10.3,7.76,10.02,23.8,3.31,33.36-.03.04-.05.08-.08.11-.7,1.1-.75,2.44-.12,3.58,1.29,2.36,4.97,2.68,5,2.68h49.23c1.6,0,2.93-1.26,3-2.87.3-6.79.12-13.8-.05-20.57-.19-7.22-.38-14.69.02-21.76.11-2,.42-5.9.75-7.82.61-3.54,1.59-4.4,1.98-4.6,1.35-.71,4.77.88,7.52,2.15,2.89,1.34,5.88,2.72,8.9,3.06,9.08,1.01,17.63-2.9,22.33-10.21,4.67-7.28,4.68-16.27,0-24.06Z"/>
    <path class="cls-5" d="M297.72,152.65c-9.33.31-18.98.63-28.33.63h0c-7.61,0-14.31-.21-20.47-.65-4.6-.33-7.36-1.22-8.2-2.66-.93-1.61.4-4.38,1.82-7.3.97-2,2.07-4.28,2.64-6.58,2.41-9.7-.44-16.02-3.26-19.62-3.98-5.08-10.55-8.12-17.6-8.12-6.22,0-11.96,2.41-15.75,6.62-4.06,4.51-5.79,10.85-5.01,18.33.29,2.77,1.62,5.58,2.91,8.29,1.57,3.29,3.04,6.41,1.99,8.31-.76,1.37-2.93,2.27-6.46,2.69h-50.17v1c0,9.3,0,18.61.03,27.92,0,2.31-.07,4.68-.16,7.19-.17,4.74-.34,9.64.14,14.23l.02.18c.19,1.8.5,4.81,2.97,4.81.28,0,.57-.04.87-.13,1.28-.38,2.5-1.11,3.79-1.88,1.17-.7,2.39-1.43,3.6-1.83,2.88-.95,5.87-1.43,8.89-1.43,11.55,0,21.04,6.94,23.62,17.26,1.88,7.51.52,14.71-3.82,20.26-4.54,5.81-11.7,9.14-19.66,9.14-2.53,0-5.1-.35-7.64-1.03-.71-.19-2.34-.94-3.91-1.67-3.3-1.52-5.55-2.52-6.71-2.52-.39,0-.71.11-.97.32l-.3.25-.05.39c-.08.6-.2,1.19-.33,1.81-.18.85-.36,1.74-.42,2.68-1.05,15.18-.48,31.43.07,47.14.06,1.77.12,3.54.18,5.31h-52.58c-1.01,0-6.51-1.59-7.29-2.2-2.68-2.11-1.46-4.76.71-8.57.67-1.18,1.31-2.29,1.69-3.36,3.86-10.68,1.34-17.68-1.46-21.67-3.78-5.39-10.35-8.61-17.58-8.61-6.07,0-11.65,2.36-15.31,6.48-3.94,4.42-5.56,10.63-4.7,17.96.35,2.98,1.86,5.93,3.19,8.53,1.15,2.24,2.23,4.35,2.3,5.95.2,4.82-8.24,5.26-12.3,5.48h-.18c-3.11.17-7.46.25-13.29.25-7.6,0-16.25-.14-23.2-.25-2.56-.04-6.89-.08-8.88-.1v-3.4h48.82c.24,0,4.89-.86,5.4-2.48l.1-.33-.12-.32c-.55-1.5-1.19-2.93-1.8-4.31-1.33-2.99-2.59-5.81-2.93-9.16-.83-8.23,1.15-15.26,5.74-20.34,4.34-4.8,10.79-7.55,17.7-7.55,8.49,0,19.49,4.56,22.57,17.42,2.32,9.65-.8,17.17-4.52,23.85l-.18.32.08.36c.34,1.67,5.41,2.53,5.46,2.53h48.72l.12-.86c1.26-8.69.93-17.95.6-26.91-.26-7.24-.53-14.72.07-21.71.69-8,3.4-8,4.43-8,1.89,0,4.29,1.15,6.83,2.38,2.2,1.06,4.48,2.15,6.67,2.6,2.04.41,4.03.62,5.92.62h0c13.41,0,20.42-10.43,20.42-20.74,0-9.78-6.46-20.31-20.63-20.31-.95,0-1.93.05-2.93.15-3.49.34-6.7,1.96-9.53,3.39-1.94.98-3.78,1.91-5.08,2.03-.22.02-.42.03-.63.03-5.22,0-5.69-7.02-5.73-14.22,0-.62,0-1.19-.02-1.71-.04-1.99-.1-4.2-.16-6.55-.3-11.74-.71-27.83.42-37.41l.04-.33c.07-.66.11-.94.36-1.16h54.07c.52,0,1.76-.43,2.35-1.28.36-.52.45-1.12.24-1.7-.32-.87-.92-1.79-1.57-2.78-.76-1.16-1.62-2.48-2.11-3.87-3.14-8.89-2.08-18.03,2.91-25.08,4.5-6.36,11.65-10.15,19.14-10.15,5.33,0,10.69,1.91,15.5,5.53,11.21,8.44,10.98,25.8,3.75,36.1-.33.52-.35,1.08-.08,1.58.66,1.21,3.07,1.65,3.25,1.65h50.19l.04-.96c.3-6.72.12-13.69-.06-20.43-.19-7.26-.38-14.77.03-21.93.12-2.05.43-6.05.78-8.05.98-5.7,3.08-6.43,4.8-6.43,2.1,0,4.73,1.22,7.51,2.5,2.74,1.27,5.58,2.58,8.28,2.88.89.1,1.79.15,2.67.15,7.78,0,14.63-3.89,18.33-10.41,3.64-6.43,3.42-14.28-.6-21-3.64-6.08-10.13-9.57-17.79-9.57-2.16,0-4.35.29-6.49.85-1.59.42-3.3,1.28-5.11,2.19-2.47,1.25-5.02,2.53-7.06,2.53-1.3,0-3.15-.48-4.17-4.65-.29-1.21-1.13-7.26-1.13-8.19V3.19h3.49c-.11,53.54,2.01,56.25,3.41,56.25.44,0,.75-.16,3.39-1.72,1.68-.99,3.99-2.35,4.88-2.66,3.01-1.03,6.05-1.56,9.04-1.56,8.2,0,15.66,3.99,19.96,10.68,4.41,6.86,4.81,15.46,1.09,23.59-3.68,8.07-10.85,12.51-20.17,12.51-6.07,0-12.6-1.88-18.39-5.3l-.29-.17-.33.04c-1.32.14-2.59,3.49-2.59,4v50.92l-.05,2.87h-2.78Z"/>
    <polygon points="0 301.93 4.86 301.93 4.86 301.86 4.86 301.86 4.86 297.48 4.86 294.1 4.86 5.89 294.69 4.86 294.69 4.86 296.79 4.85 296.79 4.86 300.53 4.86 300.53 0 0 0 0 301.93"/>
  </g>
  <text class="cls-1" transform="translate(54.06 69.64)"><tspan x="0" y="0">Bac</tspan><tspan class="cls-3" x="45.7" y="0">k</tspan><tspan x="59.63" y="0">end</tspan><tspan x="-9.39" y="29">D</tspan><tspan class="cls-4" x="8.84" y="29">e</tspan><tspan class="cls-2" x="23.39" y="29">v</tspan><tspan x="37.56" y="29">eloper</tspan></text>
</svg>