<svg id="_레이어_1" data-name="레이어 1" xmlns="http://www.w3.org/2000/svg" viewBox="0 0 600 600">
  <defs>
    <style>
      .cls-1 {
        fill: #231815;
        font-family: Pretendard-Bold-KSCpc-EUC-H, Pretendard;
        font-size: 26px;
        font-weight: 700;
      }

      .cls-2 {
        fill: #ea5514;
      }

      .cls-3 {
        fill: #fff165;
      }

      .cls-4 {
        letter-spacing: -.02em;
      }
    </style>
  </defs>
  <g>
    <path class="cls-3" d="M595.2,1.71h-291.93c-1.66,0-3,1.34-3,3v46.33c-.06,3.19.04,6.77,2.05,8.82.89.91,2.07,1.41,3.33,1.42,1.03-.01,1.55-.3,4.42-2,1.33-.79,3.82-2.25,4.52-2.49,9.18-3.15,18.59-1.02,24.57,5.58,5.92,6.52,7.06,15.65,3.06,24.42-2.39,5.23-6.22,8.7-11.39,10.33-7.06,2.22-16.38.68-24.33-4.01-.56-.33-1.2-.47-1.84-.4-3.03.32-4.38,5.32-4.38,5.99v49.92c0,1.66,1.34,3,3,3h46.38c.75.05,4.79.84,5.54,1.07.7.23,1.92.71,2.21,1.4.55,1.32-1.03,4.42-2.19,6.69-.88,1.72-1.71,3.35-2.15,4.93-4.33,15.4,3.98,25.88,14.15,29.44,9.88,3.46,22.59.5,27.78-11.84,3.99-9.48,1.88-14.31-.56-19.91-.7-1.61-1.43-3.28-2.11-5.23-.7-2.03-.8-3.57-.29-4.35,1.13-1.7,6.15-2.05,8.85-2.24,13.36-.92,33.77-.93,46.45,0,.32.02.63.05.92.08l1.07,53.5c.01.54.16,1.06.44,1.51,2.19,3.56,6.71,1.09,9.7-.54.57-.31,1.35-.73,1.6-.83,7.21-2.54,15.2-2.06,21.37,1.27,5.34,2.89,8.94,7.6,10.41,13.62,2.01,8.21-.24,16-6.16,21.36-6.68,6.05-16.5,7.81-25.62,4.59-.25-.09-1.03-.52-1.6-.83-2.99-1.63-7.51-4.09-9.7-.54-.29.47-.44,1-.45,1.55l-.32,50.97c0,.8.31,1.57.87,2.13.56.57,1.33.89,2.13.89h48.39c1.02.18,4.65,1.36,5.61,1.85,1.3,1.14.51,3.39-1.59,7.62-.69,1.4-1.35,2.72-1.76,3.97-3.4,10.51-1.33,19.86,5.67,25.66,4.18,3.46,9.73,5.25,15.3,5.25,4.02,0,8.05-.94,11.55-2.85,7.99-4.37,11.86-12.78,10.6-23.1-.3-2.44-1.51-4.97-2.79-7.65-2.89-6.03-3.21-7.98-1.57-9.02.89-.47,5-1.62,6.01-1.73h47.78c1.66,0,3-1.34,3-3V4.71c0-1.66-1.34-3-3-3Z"/>
    <path class="cls-2" d="M451.1,301.78h48.05c1.55.21,5.19.93,5.38,3.33.06.76-.52,2.11-2.07,5.5-.96,2.09-2.04,4.46-2.33,5.63-2.2,8.93-.41,17.02,5.03,22.79,4.17,4.43,11.05,7.18,17.94,7.18,1.97,0,3.86-.23,5.63-.67,6.26-1.57,11.36-5.47,14.36-10.96,3.34-6.11,3.88-13.7,1.48-20.83-.18-.54-.65-1.42-1.14-2.35-1.59-3.01-3.57-6.75-1.27-8.39.27-.2,3.26-1.22,3.68-1.22h51.02v-3.51h-50.33c-.85,0-6.06,1.45-6.94,2-3.42,2.17-1.91,6.01.77,11.62,1.21,2.53,2.35,4.91,2.61,7.02.84,6.9-.73,12.81-4.54,17.11-3.72,4.2-9.43,6.62-15.67,6.62-7.01,0-13.39-3.02-17.08-8.08-2.68-3.69-5.2-10.19-1.96-20.23.36-1.12.98-2.37,1.64-3.7,2.28-4.59,3.68-8,.94-10.15-.7-.52-5.8-2.16-6.61-2.21h-49.55l.33-52.26.15-.24c.2-.32.69-.87,1.71-.87,1.45,0,3.51,1.12,5.33,2.11.78.42,1.51.82,1.89.96,3.19,1.12,6.47,1.69,9.76,1.69,8.17,0,15.87-3.59,20.59-9.61,4.43-5.65,5.87-12.89,4.03-20.4-2.68-10.97-12.21-18.05-24.27-18.05-3.43,0-6.83.59-10.11,1.74-.39.14-1.12.54-1.89.96-1.82.99-3.88,2.11-5.33,2.11-1.02,0-1.51-.55-1.71-.87l-.14-.23-1.1-55.33c-.83-.31-1.74-.4-2.75-.47-6.13-.45-14.3-.69-23.01-.69s-17.25.25-23.72.69c-4.59.32-8.83.8-10.38,3.13-.9,1.36-.88,3.36.07,6.1.7,2.03,1.45,3.73,2.17,5.38,2.45,5.59,4.21,9.64.55,18.33-3.16,7.5-9.88,11.97-17.99,11.97-6.8,0-13.23-3.13-17.2-8.36-2.85-3.76-5.68-10.27-2.98-19.89.39-1.4,1.18-2.94,2.01-4.57,1.48-2.9,3.16-6.19,2.25-8.36-.46-1.11-1.59-1.94-3.44-2.54-.9-.29-5.43-1.16-6.05-1.17h-47.48v-50.92c0-.51,1.28-3.86,2.59-4l.33-.04.29.17c5.79,3.42,12.32,5.3,18.39,5.3,9.32,0,16.48-4.44,20.17-12.51,3.71-8.13,3.31-16.73-1.09-23.59-4.3-6.69-11.76-10.68-19.96-10.68-2.99,0-6.03.52-9.04,1.56-.89.31-3.2,1.67-4.88,2.66-2.64,1.56-2.96,1.72-3.39,1.72-1.41,0-3.53-2.71-3.41-56.25h-3.49v46.09c0,.93.83,6.98,1.13,8.19,1.01,4.16,2.86,4.65,4.17,4.65,2.04,0,4.59-1.29,7.06-2.53,1.81-.91,3.52-1.78,5.11-2.19,2.14-.56,4.32-.85,6.49-.85,7.66,0,14.15,3.49,17.79,9.57,4.02,6.71,4.25,14.56.6,21-3.69,6.52-10.55,10.41-18.33,10.41-.88,0-1.78-.05-2.67-.15-2.7-.3-5.54-1.61-8.28-2.88-2.78-1.29-5.41-2.5-7.51-2.5-1.72,0-3.82.73-4.8,6.43-.34,2-.66,6-.78,8.05-.08,1.34-.11,2.71-.15,4.07v12.66c.04,1.74.08,3.48.13,5.2.17,6.74.35,13.72.06,20.43l-.04.96h-.14v2.9c.29,0,.58-.02.86-.03,9.35-.31,19.02-.63,28.41-.63,7.11,0,13.4.18,19.24.56.08,0,8.58.76,9.33,1.84l.33.47-.24.52c-3.68,8.12-7.49,16.52-4.12,26.48,3.31,9.79,11.33,15.63,21.46,15.63,7.77,0,15.33-3.69,19.73-9.63,3.21-4.33,6.31-11.87,2.87-23.13-.37-1.21-1.02-2.38-1.71-3.61-1.06-1.89-2.16-3.84-2.25-6.1v-.33s.17-.27.17-.27c.69-1.01,2.99-1.92,23.37-1.92,5.13,0,10.5.06,15.25.1,3.88.04,7.38.08,10.12.08,2.54,0,4.18-.03,5.01-.1l1.06-.08.02,1.06c.07,4.01.02,8.09-.02,12.04-.05,4.08-.09,8.3-.01,12.43.04,2.17.04,4.63.04,7.24,0,6.68,0,14.25.72,19.41.65,4.7,2.4,5.3,3.86,5.3,1.96,0,4.55-1.24,7.05-2.43,2.35-1.12,4.78-2.29,6.93-2.55,1.37-.17,2.73-.25,4.06-.25,11.03,0,18.91,5.65,21.61,15.49,1.84,6.7.73,13.17-3.12,18.22-4.11,5.39-10.97,8.61-18.34,8.61-2.76,0-5.53-.44-8.23-1.32-1.36-.44-2.76-1.23-4.12-1.99-1.91-1.08-3.89-2.19-5.54-2.19-.85,0-2.12.25-3.37,2.4-.77,4.2-1.34,9.14-1.54,13.26-.7,14.41-.25,30.08.18,44.73l4.29.04Z"/>
    <polygon points="595.14 291.38 595.14 297.25 595.14 301.78 600 301.78 600 -.23 297.76 -.23 297.76 4.63 303.21 4.63 303.21 4.62 595.14 4.62 595.14 291.38"/>
  </g>
  <text class="cls-1" transform="translate(448.28 69.41)"><tspan x="0" y="0">P</tspan><tspan class="cls-4" x="16.2" y="0">r</tspan><tspan x="25.9" y="0">oject</tspan><tspan x="-10.63" y="29">Manager</tspan></text>
</svg>