<svg id="_레이어_1" data-name="레이어 1" xmlns="http://www.w3.org/2000/svg" viewBox="0 0 600 600">
  <defs>
    <style>
      .cls-1 {
        fill: #231815;
        font-family: Pretendard-Bold-KSCpc-EUC-H, Pretendard;
        font-size: 26px;
        font-weight: 700;
      }

      .cls-2 {
        fill: #006934;
      }

      .cls-3 {
        fill: #ccff78;
      }
    </style>
  </defs>
  <g>
    <path class="cls-3" d="M303.27,598.23c-.82,0-1.6-.33-2.17-.92-.57-.59-.87-1.38-.83-2.2.23-5.59.02-11.34-.18-16.9-.1-2.65-.19-5.29-.25-7.93-.06-2.84,0-5.82.05-8.97.1-5.61.2-11.41-.36-16.26-.43-3.7-1.27-4.35-1.3-4.38h0s-.04,0-.11,0c-.97,0-2.89,1.04-4.42,1.88-1.3.71-2.64,1.44-4.01,1.95-3.28,1.23-6.66,1.86-10.03,1.86-8.05,0-15.51-3.65-19.95-9.75-4.36-6-5.37-13.57-2.85-21.32,3.14-9.66,11.39-15.43,22.04-15.43,3.46,0,6.96.61,10.41,1.82,1.36.48,2.66,1.21,3.91,1.92,1.46.82,3.12,1.76,4.11,1.76.2,0,.61,0,1.27-1.01.41-.63,1.29-3.69,1.71-10.81.41-7.07.21-14.54.02-21.76-.18-6.78-.36-13.79-.06-20.58.07-1.6,1.39-2.87,3-2.87h49.23s3.71.33,5,2.68c.62,1.14.58,2.48-.12,3.58-3.28,5.33-6.64,13.62-3.94,22.59,2.85,9.46,11.47,15.82,21.44,15.82,6.48,0,12.39-2.77,16.65-7.79,6.99-8.25,7.01-20.07.05-31.63-.55-.92-.57-2.05-.06-2.99.51-.94,1.49-1.53,2.55-1.56l54.21-1.41c.08-3.74.04-7.52,0-11.2-.04-3.6-.08-7.32-.01-10.99.05-2.56.2-5.33.37-8.25.43-7.57.91-16.15-.56-22.34-.86-3.63-2.03-3.63-2.6-3.63-1.63,0-4.11,1.16-6.5,2.27-2.74,1.28-5.57,2.59-8.41,2.92-1.3.15-2.58.23-3.81.23h0c-8.68,0-15.62-3.73-19.53-10.5-4.12-7.14-4.06-16.84.16-24.15,3.88-6.73,10.73-10.58,18.79-10.58,2.14,0,4.39.26,6.69.79,1.95.44,3.99,1.46,5.97,2.44,2.22,1.11,4.75,2.36,6.44,2.36.72,0,1.17-.22,1.64-.81.29-.45,1.16-2.46,1.39-3.23v-49.31c0-.8.32-1.56.88-2.12l1.03-1.03c.56-.56,1.33-.88,2.12-.88h47.51c.13,0,.25,0,.38.02,4.37.56,6.9,2.39,7.13,5.15.1,1.28-.5,2.67-2.25,6.49-.88,1.91-1.96,4.29-2.21,5.28-1.18,4.78-2.15,13.85,4.54,20.94,3.81,4.04,10.13,6.55,16.49,6.55h0c1.8,0,3.53-.21,5.15-.61,5.8-1.46,10.32-4.91,13.09-9.98,3.07-5.62,3.56-12.63,1.34-19.24-.13-.39-.6-1.27-1.01-2.06-1.75-3.3-4.39-8.3-.67-10.96.67-.48,3.92-1.59,4.84-1.59h48.54c1.66,0,3,1.34,3,3v292.62c0,1.66-1.34,3-3,3h-291.94Z"/>
    <path class="cls-2" d="M297.97,447.4c.89-.03,1.36-.06,2.24-.09,9.36-.32,19.03-.64,28.39-.64,8.1,0,15.18.25,21.65.75,4.21.33,6.75,1.19,7.53,2.57.91,1.6-.41,4.3-1.81,7.15-.9,1.84-1.83,3.74-2.38,5.69-2.84,10.15-.02,16.79,2.84,20.57,3.97,5.24,10.61,8.37,17.76,8.37,6.16,0,11.86-2.39,15.63-6.57,4.09-4.52,5.86-10.9,5.1-18.45-.3-2.97-1.84-6.14-3.2-8.95-1.18-2.42-2.29-4.71-2.2-6.08.14-2.12,3.64-4.27,5.52-4.27h51.68l-.08-1.08c-.56-7.43-.08-15.27.38-22.85.48-7.85.98-15.96.33-23.65-.41-4.83-1.15-7.83-3.58-7.83-1.1,0-2.21.68-3.62,1.54-1.11.68-2.37,1.46-3.82,2-3.22,1.2-6.55,1.81-9.88,1.81-7.69,0-14.98-3.37-19.5-9-4.33-5.39-5.82-12.38-4.2-19.68,2.43-10.97,11.61-18.06,23.38-18.06,1.89,0,3.81.2,5.7.58,2.31.47,4.35,1.4,6.33,2.29,2.07.94,4.2,1.9,6.59,2.32l1.03.18.13-1.04c.08-.6.2-1.18.33-1.8.18-.85.36-1.74.43-2.68,1.11-16.06.61-33.06.12-49.5-.03-1.09-.06-2.19-.1-3.29h3.45v.34s49.54,0,49.54,0c.81.04,5.91,1.69,6.61,2.21,2.74,2.15,1.34,5.57-.94,10.15-.66,1.33-1.28,2.58-1.64,3.7-3.24,10.04-.73,16.54,1.96,20.23,3.69,5.06,10.07,8.08,17.08,8.08,6.23,0,11.94-2.41,15.67-6.62,3.81-4.3,5.37-10.21,4.54-17.11-.26-2.11-1.4-4.5-2.61-7.02-2.69-5.61-4.19-9.45-.77-11.62.88-.56,6.09-2,6.94-2h50.33v3.51h-51.02c-.42,0-3.41,1.02-3.68,1.22-2.29,1.64-.32,5.39,1.27,8.39.49.93.96,1.81,1.14,2.35,2.4,7.13,1.86,14.73-1.48,20.83-3,5.49-8.1,9.38-14.36,10.96-1.77.45-3.67.67-5.63.67-6.89,0-13.77-2.75-17.94-7.18-5.44-5.77-7.22-13.86-5.03-22.79.29-1.17,1.37-3.54,2.33-5.63,1.55-3.39,2.13-4.74,2.07-5.5-.2-2.4-3.83-3.13-5.38-3.33h-.06s-47.99,0-47.99,0l-1.62,1.62v49.99c-.06.55-1.35,3.62-1.83,4.22-.85,1.06-1.87,1.56-3.2,1.56-2.17,0-4.79-1.31-7.34-2.57-1.96-.97-3.81-1.89-5.52-2.28-2.15-.49-4.25-.74-6.24-.74-7.43,0-13.49,3.4-17.06,9.58-3.87,6.7-3.93,15.6-.16,22.15,3.54,6.13,9.86,9.5,17.8,9.5,1.16,0,2.36-.07,3.58-.21,2.52-.29,5.2-1.54,7.79-2.75,2.71-1.26,5.27-2.46,7.35-2.46,1.55,0,3.46.59,4.54,5.17,1.53,6.47,1.04,15.2.61,22.91-.16,2.91-.32,5.66-.36,8.18-.07,3.64-.03,7.34.01,10.92.05,4.33.1,8.79-.05,13.18l-57.83,1.5.89,1.47c7.42,12.33,7.33,25.02-.24,33.95-4.65,5.48-11.1,8.5-18.17,8.5-10.86,0-20.24-6.93-23.35-17.24-2.92-9.68.66-18.53,4.17-24.25.3-.47.32-1.03.05-1.53-.66-1.21-3.07-1.65-3.25-1.65h-50.19l-.04.96c-.3,6.71-.12,13.69.06,20.43.19,7.26.39,14.78-.03,21.93-.34,5.96-1.1,10.37-2.03,11.78-1.12,1.72-2.22,1.92-2.94,1.92-1.52,0-3.34-1.02-5.09-2.01-1.18-.67-2.4-1.35-3.59-1.77-3.23-1.13-6.51-1.71-9.75-1.71-9.75,0-17.28,5.25-20.14,14.05-2.32,7.12-1.41,14.05,2.56,19.52,4.06,5.59,10.91,8.93,18.33,8.93,3.13,0,6.27-.58,9.33-1.73,1.24-.47,2.52-1.16,3.76-1.84,1.92-1.04,3.9-2.12,5.38-2.12.74,0,2.69,0,3.4,6.16.58,4.99.48,10.85.38,16.52-.05,3.13-.11,6.09-.05,8.9.04,1.84.09,5.05.16,8.62.1,5.51.21,14.5.29,18h-3.67l-.57-55.52-1.4.65c-6.13,2.82-11.42,5.26-17.63,5.26-1.95,0-3.9-.23-5.96-.71-9.82-2.26-16.82-9.96-18.28-20.08-1.46-10.11,3.06-19.45,11.79-24.36,4.03-2.27,8.06-3.37,12.31-3.37,5.17,0,10.67,1.63,17.32,5.14l.21.11h.23c1.34,0,2.11-2.56,2.11-2.58v-.08s.01-50.95.01-50.95l.02-2.91Z"/>
    <polygon points="595.14 297.7 595.14 302.52 595.14 308.49 595.14 595.15 303.2 595.15 303.2 595.15 297.7 595.15 297.7 595.15 297.55 595.15 297.55 600 600 600 600 297.7 595.14 297.7"/>
  </g>
  <text class="cls-1" transform="translate(436.71 535.75)"><tspan x="0" y="0">Designer</tspan></text>
</svg>